<svg width="21" height="21" viewBox="0 0 21 21" fill="none" xmlns="http://www.w3.org/2000/svg">
<path d="M0.492391 1.13331C0.220483 1.13331 0 0.879411 0 0.567027C0 0.253904 0.220483 0 0.492391 0H3.4056C3.62158 0 3.80478 0.159893 3.87099 0.381966L4.71307 2.65008H10.5646H14.9839H20.5062C20.7781 2.65008 20.9986 2.90398 20.9986 3.2171C20.9986 3.2741 20.9916 3.32962 20.9774 3.38144L20.2395 7.09006C20.2356 7.11597 20.2311 7.14188 20.224 7.16631L19.605 10.2783C19.5555 10.5278 19.3697 10.7002 19.1589 10.7165L15.0488 11.0474C15.0289 11.0504 15.0089 11.0519 14.9884 11.0526L10.6295 11.4035C10.6096 11.4064 10.5896 11.4079 10.5691 11.4079L7.63913 11.644L6.67235 13.9965H17.8881C18.16 13.9965 18.3805 14.2505 18.3805 14.5628C18.3805 14.876 18.16 15.1299 17.8881 15.1299H5.89648V15.1284C5.82642 15.1284 5.75506 15.1114 5.68693 15.0743C5.44202 14.9411 5.3366 14.6043 5.4523 14.3215L6.7797 11.0903L5.35716 7.26032C5.34624 7.23663 5.33724 7.2122 5.32952 7.1863L3.95199 3.47619C3.94106 3.45176 3.93206 3.42659 3.9237 3.40068L3.08162 1.13331H0.491748H0.492391ZM15.7244 15.9204C16.3338 15.9204 16.8853 16.2047 17.2838 16.6644C17.683 17.1241 17.9299 17.7592 17.9299 18.4602C17.9299 19.1612 17.683 19.7971 17.2838 20.2561C16.8846 20.7157 16.3331 21 15.7244 21C15.1156 21 14.5635 20.7157 14.1649 20.2561C13.7657 19.7964 13.5189 19.1612 13.5189 18.4602C13.5189 17.7585 13.7657 17.1233 14.1649 16.6644C14.5641 16.2047 15.1156 15.9204 15.7244 15.9204ZM16.5883 17.4661C16.3672 17.2114 16.0619 17.0538 15.7244 17.0538C15.3869 17.0538 15.0816 17.2114 14.8604 17.4661C14.6393 17.7207 14.503 18.0723 14.503 18.461C14.503 18.8496 14.64 19.2012 14.8604 19.4558C15.0816 19.7105 15.3869 19.8682 15.7244 19.8682C16.0619 19.8682 16.3672 19.7105 16.5883 19.4558C16.8094 19.2012 16.9464 18.8496 16.9464 18.461C16.9464 18.0723 16.8094 17.7207 16.5883 17.4661ZM8.12446 15.9204C8.73319 15.9204 9.28537 16.2047 9.68391 16.6644C10.0831 17.1241 10.3299 17.7592 10.3299 18.4602C10.3299 19.1612 10.0831 19.7971 9.68391 20.2561C9.28472 20.7157 8.73319 21 8.12446 21C7.51507 21 6.96354 20.7157 6.565 20.2561C6.16582 19.7964 5.91898 19.1612 5.91898 18.4602C5.91898 17.7585 6.16582 17.1233 6.565 16.6644C6.96419 16.2047 7.51572 15.9204 8.12446 15.9204ZM8.98839 17.4661C8.76726 17.2114 8.46193 17.0538 8.12446 17.0538C7.78698 17.0538 7.48165 17.2114 7.26052 17.4661C7.03939 17.7207 6.90248 18.0723 6.90248 18.461C6.90248 18.8496 7.03939 19.2012 7.26052 19.4558C7.48165 19.7105 7.78698 19.8682 8.12446 19.8682C8.46193 19.8682 8.76726 19.7105 8.98839 19.4558C9.20952 19.2012 9.34643 18.8496 9.34643 18.461C9.34643 18.0723 9.20952 17.7207 8.98839 17.4661ZM6.11954 6.43495H10.0728V3.78413H5.13475L6.11954 6.43495ZM11.0576 6.43495H14.4928V3.78413H11.0576V6.43495ZM15.4769 6.43495H19.3633L19.8904 3.78413H15.4769V6.43495ZM19.1377 7.56826H15.4769V9.87856L18.7302 9.61652L19.1377 7.56826ZM14.4928 7.56826H11.0576V10.2346L14.4928 9.95777V7.56826ZM10.0728 7.56826H6.53993L7.63271 10.51L10.0728 10.3138V7.56826Z" fill="#423264"/>
</svg>
