<svg width="18" height="21" viewBox="0 0 18 21" fill="none" xmlns="http://www.w3.org/2000/svg">
<path d="M7.97908 11.0903L8.00341 11.332C8.11328 11.3188 8.19753 11.2191 8.20103 11.0979C8.20454 10.9769 8.12624 10.8716 8.01734 10.8507L7.97908 11.0903ZM10.0209 11.0903L9.98262 10.8507C9.8737 10.8716 9.79542 10.9769 9.79897 11.0979C9.80242 11.2191 9.88669 11.3188 9.99661 11.332L10.0209 11.0903ZM16.6451 19.5408V19.784C16.7072 19.784 16.7664 19.7557 16.8084 19.7057C16.8504 19.6559 16.8715 19.5889 16.8665 19.5213L16.6451 19.5408ZM1.35481 19.5408L1.13348 19.5213C1.12845 19.5889 1.14951 19.6559 1.19156 19.7057C1.2336 19.7557 1.29279 19.784 1.35481 19.784V19.5408ZM8.99999 1.21598C6.45033 1.21598 4.44115 3.26354 4.44115 5.71509H4.88526C4.88526 3.57363 6.65594 1.70237 8.99999 1.70237V1.21598ZM13.5589 5.71509C13.5589 3.26354 11.5497 1.21598 8.99999 1.21598V1.70237C11.3441 1.70237 13.1147 3.57363 13.1147 5.71509H13.5589ZM8.99999 10.2142C11.5497 10.2142 13.5589 8.16664 13.5589 5.71509H13.1147C13.1147 7.85655 11.3441 9.72781 8.99999 9.72781V10.2142ZM4.44115 5.71509C4.44115 8.16664 6.45033 10.2142 8.99999 10.2142V9.72781C6.65594 9.72781 4.88526 7.85655 4.88526 5.71509H4.44115ZM3.77498 5.71509C3.77498 2.79564 6.14465 0.486391 8.99999 0.486391V0C5.94209 0 3.33086 2.4825 3.33086 5.71509H3.77498ZM8.01734 10.8507C5.61832 10.3912 3.77498 8.29208 3.77498 5.71509H3.33086C3.33086 8.56632 5.36533 10.8365 7.94082 11.3298L8.01734 10.8507ZM0.444115 20.1488C0.444115 15.5797 3.76032 11.8442 8.00341 11.332L7.95475 10.8485C3.50974 11.385 0 15.307 0 20.1488H0.444115ZM0.777201 20.5136C0.593238 20.5136 0.444115 20.3503 0.444115 20.1488H0C0 20.6189 0.347964 21 0.777201 21V20.5136ZM17.2228 20.5136H0.777201V21H17.2228V20.5136ZM17.5559 20.1488C17.5559 20.3503 17.4068 20.5136 17.2228 20.5136V21C17.652 21 18 20.6189 18 20.1488H17.5559ZM9.99661 11.332C14.2397 11.8442 17.5559 15.5797 17.5559 20.1488H18C18 15.307 14.4903 11.385 10.0452 10.8485L9.99661 11.332ZM14.225 5.71509C14.225 8.29208 12.3816 10.3911 9.98262 10.8507L10.0591 11.3298C12.6346 10.8365 14.6691 8.56632 14.6691 5.71509H14.225ZM8.99999 0.486391C11.8553 0.486391 14.225 2.79564 14.225 5.71509H14.6691C14.6691 2.4825 12.0579 0 8.99999 0V0.486391ZM16.8665 19.5213C16.5559 15.3306 13.1697 12.0018 8.99999 12.0018V12.4882C12.9571 12.4882 16.1334 15.6425 16.4238 19.5605L16.8665 19.5213ZM1.35481 19.784H16.6451V19.2976H1.35481V19.784ZM8.99999 12.0018C4.83024 12.0018 1.44416 15.3306 1.13348 19.5213L1.57613 19.5605C1.86663 15.6425 5.0429 12.4882 8.99999 12.4882V12.0018Z" fill="#423264"/>
<path fill-rule="evenodd" clip-rule="evenodd" d="M4.66381 5.4924C4.66381 3.1959 6.55373 1.23648 9.00059 1.23648C11.4475 1.23648 13.3374 3.1959 13.3374 5.4924C13.3374 7.78891 11.4475 9.74832 9.00059 9.74832C6.55373 9.74832 4.66381 7.78891 4.66381 5.4924ZM9.00059 0.0205078C6.04397 0.0205078 3.55352 2.41638 3.55352 5.4924C3.55352 8.20652 5.49242 10.3912 7.97968 10.8676C3.63564 11.3919 0.222656 15.2207 0.222656 19.9261C0.222656 20.262 0.471205 20.5341 0.7778 20.5341H17.2234C17.5299 20.5341 17.7785 20.262 17.7785 19.9261C17.7785 15.2207 14.3655 11.3919 10.0215 10.8676C12.5088 10.3912 14.4477 8.20651 14.4477 5.4924C14.4477 2.41638 11.9572 0.0205078 9.00059 0.0205078ZM9.00059 12.0223C13.064 12.0223 16.3452 15.264 16.6457 19.3181H1.3554C1.65599 15.264 4.93717 12.0223 9.00059 12.0223Z" fill="#423264"/>
</svg>
