<svg width="21" height="21" viewBox="0 0 21 21" fill="none" xmlns="http://www.w3.org/2000/svg">
<path d="M13.8187 7.82242C13.8187 4.51072 11.1341 1.82609 7.82242 1.82609C4.51078 1.82618 1.82618 4.51078 1.82609 7.82242C1.82609 11.1341 4.51072 13.8187 7.82242 13.8187C9.44224 13.8187 10.9109 13.1755 11.99 12.1317C12.0107 12.1059 12.0329 12.0808 12.0568 12.0568C12.0808 12.0329 12.1059 12.0107 12.1317 11.99C13.1755 10.9109 13.8187 9.44224 13.8187 7.82242ZM15.6448 7.82242C15.6448 9.65347 15.0135 11.3357 13.9596 12.6685L20.7326 19.4415C21.0891 19.798 21.0891 20.376 20.7326 20.7326C20.376 21.0891 19.798 21.0891 19.4415 20.7326L12.6685 13.9596C11.3357 15.0135 9.65347 15.6448 7.82242 15.6448C3.5022 15.6447 0 12.1427 0 7.82242C9.12939e-05 3.50226 3.50226 9.12914e-05 7.82242 0C12.1427 0 15.6447 3.5022 15.6448 7.82242Z" fill="#423264"/>
</svg>
